<svg width="39" height="38" viewBox="0 0 39 38" fill="none" xmlns="http://www.w3.org/2000/svg">
<path fill-rule="evenodd" clip-rule="evenodd" d="M22.8384 3.95833C22.8384 3.85335 22.7973 3.75267 22.7241 3.67844C22.651 3.6042 22.5517 3.5625 22.4483 3.5625H11.5236C10.3854 3.5625 9.29373 4.02124 8.48886 4.83781C7.68398 5.65437 7.23181 6.76187 7.23181 7.91667V30.0833C7.23181 31.2381 7.68398 32.3456 8.48886 33.1622C9.29373 33.9788 10.3854 34.4375 11.5236 34.4375H27.1302C28.2685 34.4375 29.3601 33.9788 30.165 33.1622C30.9699 32.3456 31.422 31.2381 31.422 30.0833V14.4828C31.422 14.3778 31.3809 14.2771 31.3078 14.2029C31.2346 14.1286 31.1354 14.0869 31.0319 14.0869H24.0089C23.6985 14.0869 23.4008 13.9618 23.1812 13.7391C22.9617 13.5164 22.8384 13.2144 22.8384 12.8994V3.95833ZM24.0089 19.3958C24.3193 19.3958 24.6171 19.5209 24.8366 19.7436C25.0561 19.9663 25.1794 20.2684 25.1794 20.5833C25.1794 20.8983 25.0561 21.2003 24.8366 21.423C24.6171 21.6457 24.3193 21.7708 24.0089 21.7708H14.6449C14.3345 21.7708 14.0368 21.6457 13.8173 21.423C13.5978 21.2003 13.4745 20.8983 13.4745 20.5833C13.4745 20.2684 13.5978 19.9663 13.8173 19.7436C14.0368 19.5209 14.3345 19.3958 14.6449 19.3958H24.0089ZM24.0089 25.7292C24.3193 25.7292 24.6171 25.8543 24.8366 26.077C25.0561 26.2997 25.1794 26.6017 25.1794 26.9167C25.1794 27.2316 25.0561 27.5337 24.8366 27.7564C24.6171 27.9791 24.3193 28.1042 24.0089 28.1042H14.6449C14.3345 28.1042 14.0368 27.9791 13.8173 27.7564C13.5978 27.5337 13.4745 27.2316 13.4745 26.9167C13.4745 26.6017 13.5978 26.2997 13.8173 26.077C14.0368 25.8543 14.3345 25.7292 14.6449 25.7292H24.0089Z" fill="#1E1E1E"/>
<path d="M25.1794 4.47134C25.1794 4.18 25.4807 3.99475 25.7038 4.17684C25.8927 4.332 26.0628 4.5125 26.2079 4.71834L30.9102 11.3636C31.0163 11.5156 30.9008 11.7119 30.7167 11.7119H25.5696C25.4661 11.7119 25.3669 11.6702 25.2937 11.596C25.2205 11.5217 25.1794 11.4211 25.1794 11.3161V4.47134Z" fill="#8F8F8F"/>
</svg>
