<svg width="14" height="15" viewBox="0 0 14 15" fill="none" xmlns="http://www.w3.org/2000/svg">
<g clip-path="url(#clip0_23_1467)">
<path d="M6.99998 12.3821L11.1261 8.25598C11.1898 8.18159 11.2231 8.08589 11.2193 7.98802C11.2155 7.89014 11.175 7.7973 11.1057 7.72804C11.0364 7.65878 10.9436 7.61821 10.8457 7.61443C10.7478 7.61065 10.6522 7.64394 10.5778 7.70765L7.38887 10.8926V2.86209C7.38887 2.75895 7.34789 2.66004 7.27496 2.58711C7.20203 2.51418 7.10312 2.47321 6.99998 2.47321C6.89684 2.47321 6.79792 2.51418 6.72499 2.58711C6.65206 2.66004 6.61109 2.75895 6.61109 2.86209V10.8926L3.42609 7.70765C3.39123 7.66694 3.34832 7.63388 3.30008 7.61053C3.25183 7.58719 3.19928 7.57408 3.14572 7.57201C3.09216 7.56994 3.03876 7.57896 2.98885 7.59851C2.93895 7.61806 2.89362 7.64772 2.85572 7.68562C2.81783 7.72352 2.78817 7.76884 2.76862 7.81875C2.74907 7.86865 2.74004 7.92206 2.74211 7.97562C2.74418 8.02917 2.7573 8.08172 2.78064 8.12997C2.80398 8.17822 2.83705 8.22112 2.87776 8.25598L6.99998 12.3821Z" fill="#7C7C7C"/>
</g>
<defs>
<clipPath id="clip0_23_1467">
<rect width="14" height="14" fill="white" transform="translate(0 0.917648)"/>
</clipPath>
</defs>
</svg>
