<svg width="24" height="18" viewBox="0 0 24 18" fill="none" xmlns="http://www.w3.org/2000/svg">
<path d="M15.4065 13.0992C16.0797 12.4522 16.5413 11.6232 16.7324 10.7177C16.9235 9.81219 16.8354 8.87137 16.4795 8.0152C16.1236 7.15903 15.5158 6.42634 14.7339 5.91058C13.9519 5.39482 13.0311 5.11937 12.089 5.11937C11.1469 5.11937 10.2261 5.39482 9.44413 5.91058C8.66216 6.42634 8.05444 7.15903 7.6985 8.0152C7.34256 8.87137 7.25452 9.81219 7.44561 10.7177C7.63671 11.6232 8.09828 12.4522 8.77145 13.0992C7.63169 13.6938 6.68409 14.5895 6.03571 15.685C5.89685 15.9312 5.86204 16.2212 5.93876 16.4924C6.01547 16.7636 6.19759 16.9944 6.44593 17.1351C6.69426 17.2759 6.98897 17.3154 7.26664 17.245C7.54431 17.1747 7.78275 17.0002 7.93067 16.759C8.35827 16.0499 8.96669 15.4624 9.69601 15.0542C10.4253 14.6461 11.2504 14.4315 12.0899 14.4315C12.9294 14.4315 13.7545 14.6461 14.4838 15.0542C15.2131 15.4624 15.8215 16.0499 16.2492 16.759C16.3195 16.8839 16.4146 16.9937 16.5287 17.0821C16.6428 17.1705 16.7738 17.2357 16.9139 17.2739C17.0539 17.312 17.2004 17.3224 17.3446 17.3044C17.4888 17.2865 17.628 17.2404 17.7539 17.1691C17.8798 17.0977 17.9899 17.0024 18.0779 16.8888C18.1658 16.7752 18.2299 16.6455 18.2662 16.5074C18.3025 16.3692 18.3104 16.2253 18.2895 16.0841C18.2685 15.9429 18.2191 15.8072 18.1441 15.685C17.4952 14.5893 16.547 13.6936 15.4065 13.0992ZM9.53564 9.77855C9.53564 9.28288 9.68539 8.79834 9.96596 8.38621C10.2465 7.97408 10.6453 7.65286 11.1119 7.46318C11.5784 7.2735 12.0918 7.22387 12.5871 7.32056C13.0824 7.41726 13.5374 7.65595 13.8945 8.00644C14.2516 8.35693 14.4948 8.80348 14.5933 9.28962C14.6918 9.77577 14.6413 10.2797 14.448 10.7376C14.2547 11.1955 13.9275 11.5869 13.5076 11.8623C13.0877 12.1377 12.594 12.2847 12.089 12.2847C11.4118 12.2847 10.7623 12.0206 10.2835 11.5507C9.80465 11.0807 9.53564 10.4432 9.53564 9.77855ZM22.9599 10.6369C22.845 10.7217 22.7142 10.7835 22.5749 10.8186C22.4356 10.8538 22.2907 10.8616 22.1483 10.8418C22.0059 10.8219 21.869 10.7747 21.7452 10.7028C21.6214 10.631 21.5133 10.5359 21.427 10.423C20.6674 9.43037 19.6169 8.66958 18.7524 8.4861C18.5225 8.4373 18.3148 8.31711 18.1599 8.14334C18.0051 7.96958 17.9115 7.75148 17.8928 7.52137C17.8742 7.29126 17.9316 7.06138 18.0565 6.8658C18.1815 6.67022 18.3673 6.51935 18.5864 6.43554C18.8592 6.33101 19.1024 6.16352 19.2953 5.94725C19.4883 5.73097 19.6253 5.47227 19.6949 5.19302C19.7644 4.91378 19.7644 4.6222 19.6949 4.34295C19.6253 4.06371 19.4883 3.805 19.2953 3.58873C19.1024 3.37246 18.8592 3.20497 18.5864 3.10044C18.3136 2.9959 18.0191 2.9574 17.7279 2.98818C17.4367 3.01897 17.1573 3.11813 16.9134 3.27729C16.6695 3.43644 16.4683 3.65091 16.3267 3.90255C16.2595 4.03007 16.167 4.14309 16.0546 4.23492C15.9422 4.32675 15.8122 4.39554 15.6722 4.43721C15.5323 4.47888 15.3852 4.4926 15.2398 4.47755C15.0943 4.46249 14.9534 4.41898 14.8254 4.34957C14.6974 4.28016 14.5849 4.18627 14.4944 4.07345C14.404 3.96062 14.3376 3.83116 14.299 3.69269C14.2604 3.55423 14.2505 3.40958 14.2699 3.2673C14.2892 3.12501 14.3374 2.98798 14.4116 2.8643C14.6824 2.39435 15.0488 1.98407 15.4879 1.65894C15.927 1.33381 16.4296 1.10077 16.9644 0.97431C17.4991 0.847846 18.0547 0.830655 18.5965 0.923803C19.1383 1.01695 19.6548 1.21845 20.114 1.51578C20.5731 1.81312 20.9651 2.19993 21.2655 2.65221C21.5659 3.10448 21.7683 3.61254 21.8602 4.14485C21.9522 4.67715 21.9316 5.22232 21.7998 5.74649C21.668 6.27066 21.4278 6.76263 21.0942 7.19186C21.8971 7.71682 22.602 8.37353 23.1779 9.13322C23.3521 9.36099 23.427 9.64737 23.3862 9.92935C23.3453 10.2113 23.192 10.4658 22.9599 10.6369ZM5.42564 8.48878C4.56114 8.67227 3.51062 9.43306 2.75099 10.4266C2.57625 10.6543 2.31648 10.8046 2.02883 10.8444C1.74118 10.8842 1.44921 10.8102 1.21715 10.6387C0.98509 10.4672 0.83195 10.2122 0.791419 9.92988C0.750888 9.64755 0.826286 9.36098 1.00103 9.13322C1.57721 8.37375 2.28203 7.71708 3.08475 7.19186C2.75108 6.76263 2.5109 6.27066 2.37911 5.74649C2.24732 5.22232 2.22675 4.67715 2.31867 4.14485C2.41059 3.61254 2.61305 3.10448 2.91345 2.65221C3.21386 2.19993 3.6058 1.81312 4.06493 1.51578C4.52407 1.21845 5.04059 1.01695 5.58241 0.923803C6.12423 0.830655 6.67977 0.847846 7.21454 0.97431C7.7493 1.10077 8.25186 1.33381 8.691 1.65894C9.13014 1.98407 9.49648 2.39435 9.76726 2.8643C9.84149 2.98798 9.8897 3.12501 9.90905 3.2673C9.9284 3.40958 9.9185 3.55423 9.87993 3.69269C9.84135 3.83116 9.77489 3.96062 9.68447 4.07345C9.59405 4.18627 9.48151 4.28016 9.35349 4.34957C9.22547 4.41898 9.08458 4.46249 8.93913 4.47755C8.79369 4.4926 8.64664 4.47888 8.50669 4.43721C8.36674 4.39554 8.23672 4.32675 8.12431 4.23492C8.0119 4.14309 7.91939 4.03007 7.85224 3.90255C7.71065 3.65091 7.50939 3.43644 7.26549 3.27729C7.02159 3.11813 6.74222 3.01897 6.45102 2.98818C6.15982 2.9574 5.86535 2.9959 5.59252 3.10044C5.31968 3.20497 5.07651 3.37246 4.88357 3.58873C4.69063 3.805 4.55359 4.06371 4.48405 4.34295C4.4145 4.6222 4.4145 4.91378 4.48405 5.19302C4.55359 5.47227 4.69063 5.73097 4.88357 5.94725C5.07651 6.16352 5.31968 6.33101 5.59252 6.43554C5.81166 6.51935 5.99745 6.67022 6.12238 6.8658C6.2473 7.06138 6.30471 7.29126 6.28608 7.52137C6.26746 7.75148 6.1738 7.96958 6.01898 8.14334C5.86416 8.31711 5.65642 8.4373 5.42655 8.4861L5.42564 8.48878Z" fill="white"/>
</svg>
