<svg width="32" height="33" viewBox="0 0 32 33" fill="none" xmlns="http://www.w3.org/2000/svg">
<path d="M16 2.91765C13.2311 2.91765 10.5243 3.73873 8.22202 5.27707C5.91973 6.81541 4.12532 9.00191 3.06569 11.5601C2.00607 14.1182 1.72882 16.9332 2.26901 19.6489C2.80921 22.3646 4.14258 24.8592 6.10051 26.8171C8.05845 28.7751 10.553 30.1084 13.2687 30.6486C15.9845 31.1888 18.7994 30.9116 21.3576 29.852C23.9157 28.7923 26.1022 26.9979 27.6406 24.6956C29.1789 22.3933 30 19.6866 30 16.9176C30 13.2046 28.525 9.64366 25.8995 7.01815C23.274 4.39264 19.713 2.91765 16 2.91765ZM16 28.9176C13.6266 28.9176 11.3066 28.2139 9.33316 26.8953C7.35977 25.5767 5.8217 23.7026 4.91345 21.5098C4.0052 19.3171 3.76756 16.9043 4.23058 14.5766C4.69361 12.2488 5.83649 10.1106 7.51472 8.43237C9.19296 6.75414 11.3312 5.61125 13.6589 5.14822C15.9867 4.6852 18.3995 4.92284 20.5922 5.83109C22.7849 6.73935 24.6591 8.27742 25.9776 10.2508C27.2962 12.2242 28 14.5443 28 16.9176C28 20.1002 26.7357 23.1525 24.4853 25.4029C22.2348 27.6534 19.1826 28.9176 16 28.9176Z" fill="#F1CD89"/>
<path d="M15 8.91765H17V19.9176H15V8.91765ZM16 22.9176C15.7033 22.9176 15.4133 23.0056 15.1666 23.1704C14.92 23.3353 14.7277 23.5695 14.6142 23.8436C14.5006 24.1177 14.4709 24.4193 14.5288 24.7103C14.5867 25.0013 14.7296 25.2685 14.9393 25.4783C15.1491 25.6881 15.4164 25.8309 15.7074 25.8888C15.9983 25.9467 16.2999 25.917 16.574 25.8035C16.8481 25.6899 17.0824 25.4977 17.2472 25.251C17.412 25.0043 17.5 24.7143 17.5 24.4176C17.5 24.0198 17.342 23.6383 17.0607 23.357C16.7794 23.0757 16.3978 22.9176 16 22.9176Z" fill="#F1CD89"/>
</svg>
